<svg xmlns="http://www.w3.org/2000/svg" width="36" height="36" viewBox="0 0 24 24">
  <rect width="24" height="24" rx="4" fill="#0A66C2"/>
  <path fill="#ffffff"
    d="M6.94 8.5H4.5V19h2.44V8.5zM5.72 7.4c.78 0 1.28-.52 1.28-1.17
       0-.66-.5-1.17-1.26-1.17-.77 0-1.28.51-1.28 1.17
       0 .65.5 1.17 1.26 1.17zM19.5 13.06c0-2.52-1.35-3.69-3.15-3.69
       -1.45 0-2.1.8-2.46 1.36V9.37h-2.44c.03.9 0 9.63 0 9.63h2.44v-5.38
       c0-.29.02-.58.11-.79.23-.58.75-1.18 1.63-1.18
       1.15 0 1.61.88 1.61 2.17V19h2.44v-5.94z"/>
</svg>
