<svg xmlns="http://www.w3.org/2000/svg" width="36" height="36" viewBox="0 0 24 24">
  <rect width="24" height="24" rx="4" fill="#25D366"/>
  <path fill="#ffffff"
    d="M12.04 2C6.58 2 2.12 6.46 2.12 11.92
       c0 1.98.52 3.83 1.43 5.44L2 22l4.76-1.25
       c1.57.86 3.34 1.35 5.28 1.35
       5.46 0 9.92-4.46 9.92-9.92
       C21.96 6.46 17.5 2 12.04 2zm0 18.1
       c-1.7 0-3.29-.46-4.66-1.26l-.33-.2
       -2.83.74.75-2.76-.22-.35
       c-.87-1.38-1.33-2.98-1.33-4.65
       0-4.78 3.89-8.67 8.67-8.67
       4.78 0 8.67 3.89 8.67 8.67
       0 4.78-3.89 8.67-8.67 8.67z"/>
</svg>
